<svg width="21" height="23" viewBox="0 0 21 23" fill="none" xmlns="http://www.w3.org/2000/svg">
<path d="M10.0017 0.36634C8.24161 0.292981 6.4893 0.638679 4.88898 1.37498C3.28865 2.11128 1.88608 3.21712 0.796714 4.60148L4.89357 7.41051C5.47413 6.64257 6.22539 6.02023 7.08794 5.5927C7.9505 5.16518 8.90069 4.94419 9.86338 4.94721C11.0676 4.90706 12.247 5.29609 13.191 6.04489C13.6159 6.37405 13.9583 6.79776 14.1909 7.28238C14.4234 7.767 14.5398 8.29917 14.5307 8.83662V9.48486C13.8128 9.20853 13.0763 8.98324 12.3267 8.8107C11.1906 8.57021 10.0303 8.46289 8.86941 8.4909C7.69862 8.47796 6.53273 8.6441 5.41215 8.98356C4.4166 9.29319 3.48745 9.78561 2.67228 10.4356C1.93704 11.0519 1.34181 11.8181 0.926362 12.6828C0.484266 13.6077 0.26239 14.6224 0.278126 15.6474C0.26534 16.6592 0.471741 17.6617 0.883147 18.5861C1.28228 19.4684 1.87276 20.2508 2.61178 20.8765C3.3542 21.5234 4.20985 22.0274 5.13557 22.3632C6.12557 22.7303 7.17396 22.9148 8.22982 22.9077C9.48837 22.962 10.737 22.6625 11.834 22.0434C12.7441 21.4895 13.556 20.7885 14.2368 19.969H14.5825V22.2162H20.1574V9.52808C20.1574 6.50298 19.293 4.2183 17.5644 2.67406C15.8358 1.12982 13.3149 0.360578 10.0017 0.36634ZM14.1677 15.4659C13.9335 16.0508 13.5803 16.5806 13.1305 17.0217C12.6684 17.4851 12.1191 17.8523 11.5142 18.1021C10.8586 18.3814 10.1525 18.5227 9.43986 18.517C8.56151 18.5313 7.70254 18.2582 6.99385 17.7391C6.66021 17.5075 6.38923 17.1968 6.2052 16.8348C6.02116 16.4728 5.92983 16.0707 5.93939 15.6647C5.93836 15.2397 6.03716 14.8204 6.22782 14.4406C6.41848 14.0608 6.69567 13.7311 7.03707 13.478C7.9542 12.8416 9.06086 12.5367 10.1745 12.6137C10.9524 12.6083 11.7277 12.7012 12.4822 12.8903C13.1901 13.0792 13.8788 13.3338 14.5393 13.6509C14.5389 14.2747 14.4125 14.8921 14.1677 15.4659Z" fill="#0E1E15"/>
</svg>
