<svg width="11" height="8" viewBox="0 0 11 8" fill="none" xmlns="http://www.w3.org/2000/svg">
<path d="M3.53759 7.27469H7.37515L10.6077 2.56418C10.6954 2.43713 10.7424 2.28641 10.7424 2.13202C10.7424 1.97764 10.6954 1.82691 10.6077 1.69986V1.69986L9.82116 0.42932C9.74984 0.32221 9.6536 0.234007 9.54069 0.172284C9.42778 0.11056 9.30158 0.07716 9.17292 0.0749512L1.79168 0.0749512C1.66272 0.075657 1.53596 0.108413 1.42281 0.170271C1.30965 0.232129 1.21366 0.321148 1.14345 0.42932L0.330989 1.72579C0.24327 1.85284 0.196289 2.00357 0.196289 2.15795C0.196289 2.31233 0.24327 2.46306 0.330989 2.59011L3.53759 7.27469Z" fill="#0E1E15"/>
</svg>
