<svg width="23" height="23" viewBox="0 0 23 23" fill="none" xmlns="http://www.w3.org/2000/svg">
<path d="M21.9482 7.10796C21.4248 5.77408 20.6331 4.56188 19.6221 3.54644C18.6111 2.53101 17.4024 1.73396 16.0709 1.20469C13.1639 0.0870449 9.94574 0.0870449 7.03877 1.20469C5.70721 1.73396 4.49851 2.53101 3.48753 3.54644C2.47656 4.56188 1.68484 5.77408 1.16143 7.10796C0.580822 8.54986 0.287229 10.0912 0.297117 11.6456C0.287229 13.2 0.580822 14.7414 1.16143 16.1833C1.68673 17.515 2.47921 18.7251 3.49002 19.7389C4.50083 20.7527 5.70856 21.5487 7.03877 22.0779C9.94357 23.2072 13.1661 23.2072 16.0709 22.0779C17.4011 21.5487 18.6088 20.7527 19.6196 19.7389C20.6304 18.7251 21.4229 17.515 21.9482 16.1833C22.5288 14.7414 22.8224 13.2 22.8125 11.6456C22.8224 10.0912 22.5288 8.54986 21.9482 7.10796ZM16.6759 14.1953C16.4006 14.9062 15.983 15.5533 15.4486 16.0968C14.9387 16.6129 14.3263 17.0163 13.6508 17.2809C12.9875 17.5551 12.2768 17.696 11.5591 17.6958C10.8326 17.7011 10.1124 17.56 9.44156 17.2809C8.79194 17.0059 8.20412 16.6032 7.71294 16.0968C7.17597 15.5536 6.75541 14.9066 6.47697 14.1953C6.16467 13.3822 6.01207 12.5165 6.02752 11.6456C6.01207 10.7747 6.16467 9.90901 6.47697 9.09588C6.75541 8.38462 7.17597 7.73761 7.71294 7.19439C8.206 6.68806 8.7932 6.28289 9.44156 6.00163C10.1142 5.7295 10.8336 5.5915 11.5591 5.5954C12.2759 5.59636 12.9858 5.73424 13.6508 6.00163C14.3247 6.27323 14.9364 6.67903 15.4486 7.19439C15.983 7.73794 16.4006 8.38503 16.6759 9.09588C17.287 10.7408 17.287 12.5505 16.6759 14.1953Z" fill="#0E1E15"/>
</svg>
